<svg width="300" height="92" viewBox="0 0 300 92" fill="none" xmlns="http://www.w3.org/2000/svg">
<path d="M3.59505 74L4.46282 23.7933H15.3099L21.5083 55.4669L28.1405 23.7933H38.6158L39.4835 74H32.0455L31.2397 39.971L24.8554 74H18.4711L11.7769 39.7231L11.0951 74H3.59505ZM51.8376 74V23.7933H73.7178V30.8594H62.0649V44.1859H71.0525V51.314H62.0649V67.0578H73.8418V74H51.8376ZM83.9747 74V23.7933H96.9912C100.38 23.7933 103.272 24.1859 105.669 24.971C108.107 25.7148 109.966 27.0578 111.247 28.9999C112.57 30.9421 113.231 33.628 113.231 37.0578C113.231 39.1239 113.045 40.9628 112.673 42.5743C112.342 44.1446 111.723 45.5289 110.814 46.7272C109.946 47.8843 108.706 48.814 107.095 49.5165L114.037 74H103.561L97.797 51.252H94.2019V74H83.9747ZM94.2019 45.1776H97.1772C98.83 45.1776 100.132 44.909 101.082 44.3719C102.033 43.8347 102.694 43.0289 103.066 41.9545C103.479 40.8388 103.685 39.4752 103.685 37.8636C103.685 35.5495 103.252 33.7933 102.384 32.595C101.557 31.3553 99.9871 30.7355 97.673 30.7355H94.2019V45.1776ZM138.593 74.6818C134.874 74.6818 131.919 73.9793 129.729 72.5744C127.58 71.1694 126.072 69.2273 125.204 66.7479C124.337 64.2273 123.903 61.314 123.903 58.0082V39.971C123.903 36.4999 124.337 33.5247 125.204 31.0454C126.072 28.5247 127.58 26.5826 129.729 25.2189C131.919 23.8553 134.874 23.1735 138.593 23.1735C142.188 23.1735 144.998 23.7727 147.023 24.971C149.089 26.1693 150.535 27.8636 151.361 30.0537C152.229 32.2437 152.663 34.7851 152.663 37.6776V41.8925H142.746V37.1818C142.746 36.0247 142.684 34.9504 142.56 33.9586C142.436 32.9256 142.085 32.0991 141.506 31.4793C140.969 30.8181 140.018 30.4875 138.655 30.4875C137.291 30.4875 136.299 30.8181 135.68 31.4793C135.06 32.1404 134.667 33.0082 134.502 34.0826C134.337 35.1156 134.254 36.2727 134.254 37.5537V60.3636C134.254 61.7686 134.357 63.0082 134.564 64.0826C134.812 65.1157 135.246 65.9215 135.866 66.5C136.527 67.0372 137.456 67.3058 138.655 67.3058C139.977 67.3058 140.907 66.9959 141.444 66.376C142.023 65.7149 142.374 64.8471 142.498 63.7727C142.663 62.6983 142.746 61.562 142.746 60.3636V55.4669H152.663V59.6198C152.663 62.5537 152.25 65.157 151.423 67.4297C150.597 69.6612 149.171 71.438 147.147 72.7603C145.122 74.0413 142.271 74.6818 138.593 74.6818ZM161.386 74L171.118 23.7933H182.461L192.13 74H182.647L180.849 62.9669H172.915L170.994 74H161.386ZM173.845 56.7066H179.857L176.82 36.438L173.845 56.7066ZM204.164 74V31.4173H196.416V23.7933H222.077V31.4173H214.453V74H204.164Z" fill="white"/>
<path d="M245.722 74.6818C241.921 74.6818 238.966 74.0413 236.859 72.7603C234.751 71.438 233.264 69.5578 232.396 67.1198C231.569 64.6405 231.156 61.6446 231.156 58.1322V23.7933H241.259V59.5578C241.259 60.7975 241.342 62.0165 241.507 63.2149C241.714 64.4132 242.127 65.3843 242.747 66.1281C243.408 66.8719 244.4 67.2438 245.722 67.2438C247.086 67.2438 248.078 66.8719 248.697 66.1281C249.359 65.3843 249.772 64.4132 249.937 63.2149C250.102 62.0165 250.185 60.7975 250.185 59.5578V23.7933H260.288V58.1322C260.288 61.6446 259.854 64.6405 258.987 67.1198C258.16 69.5578 256.693 71.438 254.586 72.7603C252.478 74.0413 249.524 74.6818 245.722 74.6818ZM285.399 74.6818C282.3 74.6818 279.718 74.124 277.651 73.0083C275.585 71.8512 274.015 70.1364 272.941 67.8636C271.908 65.5496 271.309 62.6157 271.143 59.062L279.945 57.5744C280.028 59.6405 280.234 61.376 280.565 62.781C280.937 64.1446 281.474 65.1777 282.176 65.8802C282.92 66.5413 283.829 66.8719 284.904 66.8719C286.226 66.8719 287.114 66.4587 287.569 65.6322C288.065 64.8058 288.313 63.8554 288.313 62.781C288.313 60.6735 287.796 58.9173 286.763 57.5124C285.771 56.0661 284.449 54.6198 282.796 53.1735L277.59 48.6487C275.73 47.0785 274.201 45.3016 273.003 43.3181C271.846 41.3347 271.267 38.8966 271.267 36.0041C271.267 31.8718 272.466 28.7107 274.862 26.5206C277.3 24.2892 280.627 23.1735 284.842 23.1735C287.362 23.1735 289.428 23.5867 291.04 24.4131C292.652 25.2396 293.891 26.3553 294.759 27.7603C295.668 29.1239 296.288 30.6322 296.618 32.2851C296.99 33.8966 297.218 35.5082 297.3 37.1198L288.561 38.4214C288.478 36.8925 288.333 35.5495 288.127 34.3925C287.961 33.2355 287.59 32.3264 287.011 31.6652C286.474 31.0041 285.647 30.6735 284.532 30.6735C283.333 30.6735 282.445 31.128 281.866 32.0371C281.288 32.9049 280.999 33.876 280.999 34.9504C280.999 36.7272 281.391 38.1942 282.176 39.3512C283.003 40.4669 284.118 41.6446 285.523 42.8842L290.606 47.3471C292.714 49.1653 294.511 51.252 295.999 53.6074C297.528 55.9215 298.292 58.7934 298.292 62.2231C298.292 64.5785 297.755 66.7066 296.68 68.6074C295.606 70.5083 294.098 71.9959 292.156 73.0702C290.255 74.1446 288.003 74.6818 285.399 74.6818Z" fill="url(#paint0_linear_276_27204)"/>
<rect x="249.532" y="32.9722" width="10.9614" height="7.75848" fill="black"/>
<defs>
<linearGradient id="paint0_linear_276_27204" x1="267" y1="27" x2="270" y2="74" gradientUnits="userSpaceOnUse">
<stop stop-color="#FF0F44"/>
<stop offset="1" stop-color="#FF0038"/>
</linearGradient>
</defs>
</svg>
