<svg width="774" height="247" viewBox="0 0 774 247" fill="none" xmlns="http://www.w3.org/2000/svg">
<path d="M9.68609 199L12.0241 63.7287H41.2494L57.9495 149.067L75.8187 63.7287H104.042L106.38 199H86.3398L84.1688 107.316L66.9676 199H49.7665L31.7303 106.648L29.8933 199H9.68609ZM129.645 199V63.7287H188.597V82.7669H157.201V118.672H181.416V137.877H157.201V180.296H188.931V199H129.645ZM206.212 199V63.7287H241.282C250.411 63.7287 258.205 64.7864 264.662 66.9018C271.231 68.9058 276.241 72.5242 279.692 77.7569C283.255 82.9896 285.036 90.2263 285.036 99.4671C285.036 105.034 284.535 109.988 283.533 114.33C282.643 118.561 280.973 122.291 278.523 125.519C276.185 128.637 272.845 131.142 268.503 133.034L287.207 199H258.984L243.453 137.71H233.767V199H206.212ZM233.767 121.344H241.783C246.236 121.344 249.743 120.621 252.304 119.173C254.865 117.726 256.646 115.555 257.648 112.66C258.761 109.654 259.318 105.98 259.318 101.638C259.318 95.4034 258.149 90.6717 255.811 87.443C253.584 84.1029 249.354 82.4329 243.119 82.4329H233.767V121.344ZM343.349 200.837C333.329 200.837 325.368 198.944 319.467 195.159C313.678 191.374 309.614 186.141 307.276 179.461C304.938 172.669 303.769 164.82 303.769 155.914V107.316C303.769 97.9641 304.938 89.948 307.276 83.2679C309.614 76.4765 313.678 71.2438 319.467 67.5698C325.368 63.8957 333.329 62.0587 343.349 62.0587C353.035 62.0587 360.605 63.6731 366.061 66.9018C371.628 70.1305 375.524 74.6952 377.751 80.5959C380.089 86.4966 381.258 93.3437 381.258 101.137V112.493H354.538V99.8011C354.538 96.6837 354.371 93.789 354.037 91.117C353.703 88.3336 352.756 86.107 351.198 84.4369C349.75 82.6556 347.19 81.7649 343.516 81.7649C339.842 81.7649 337.17 82.6556 335.5 84.4369C333.83 86.2183 332.772 88.5563 332.327 91.451C331.881 94.2344 331.659 97.3517 331.659 100.803V162.26C331.659 166.045 331.937 169.385 332.494 172.28C333.162 175.063 334.331 177.234 336.001 178.793C337.782 180.24 340.287 180.964 343.516 180.964C347.078 180.964 349.583 180.129 351.031 178.459C352.589 176.677 353.536 174.339 353.87 171.445C354.315 168.55 354.538 165.488 354.538 162.26V149.067H381.258V160.256C381.258 168.16 380.145 175.174 377.918 181.298C375.691 187.31 371.85 192.097 366.395 195.66C360.939 199.111 353.257 200.837 343.349 200.837ZM394.741 199L420.96 63.7287H451.521L477.574 199H452.022L447.179 169.274H425.803L420.626 199H394.741ZM428.308 152.407H444.507L436.324 97.7971L428.308 152.407ZM499.975 199V84.2699H479.1V63.7287H548.239V84.2699H527.697V199H499.975Z" fill="white"/>
<path d="M601.926 200.837C591.683 200.837 583.723 199.111 578.045 195.66C572.366 192.097 568.358 187.032 566.02 180.463C563.794 173.783 562.68 165.711 562.68 156.248V63.7287H589.902V160.089C589.902 163.429 590.124 166.713 590.57 169.942C591.126 173.17 592.24 175.787 593.91 177.791C595.691 179.795 598.363 180.797 601.926 180.797C605.6 180.797 608.272 179.795 609.942 177.791C611.723 175.787 612.837 173.17 613.282 169.942C613.727 166.713 613.95 163.429 613.95 160.089V63.7287H641.171V156.248C641.171 165.711 640.002 173.783 637.664 180.463C635.437 187.032 631.485 192.097 625.807 195.66C620.129 199.111 612.169 200.837 601.926 200.837ZM698.808 200.837C690.457 200.837 683.499 199.334 677.932 196.328C672.366 193.211 668.135 188.59 665.24 182.467C662.457 176.232 660.843 168.327 660.397 158.753L684.111 154.745C684.334 160.311 684.891 164.987 685.781 168.773C686.783 172.447 688.231 175.23 690.123 177.123C692.127 178.904 694.577 179.795 697.472 179.795C701.034 179.795 703.428 178.681 704.653 176.455C705.989 174.228 706.657 171.667 706.657 168.773C706.657 163.095 705.265 158.363 702.482 154.578C699.81 150.681 696.247 146.784 691.793 142.887L677.765 130.696C672.755 126.466 668.636 121.678 665.407 116.334C662.29 110.99 660.731 104.421 660.731 96.628C660.731 85.4946 663.96 76.9775 670.417 71.0768C676.986 65.0648 685.948 62.0587 697.305 62.0587C704.096 62.0587 709.663 63.1721 714.005 65.3988C718.347 67.6255 721.687 70.6315 724.025 74.4168C726.474 78.0909 728.144 82.1546 729.035 86.608C730.037 90.95 730.649 95.292 730.872 99.6341L707.325 103.141C707.102 99.0217 706.712 95.4034 706.156 92.286C705.71 89.1686 704.708 86.7193 703.15 84.9379C701.702 83.1566 699.476 82.2659 696.47 82.2659C693.241 82.2659 690.847 83.4906 689.288 85.9399C687.73 88.278 686.95 90.8943 686.95 93.789C686.95 98.5764 688.008 102.529 690.123 105.646C692.35 108.652 695.356 111.825 699.142 115.165L712.836 127.189C718.514 132.088 723.357 137.71 727.365 144.056C731.484 150.291 733.544 158.029 733.544 167.27C733.544 173.616 732.097 179.349 729.202 184.471C726.307 189.592 722.243 193.6 717.011 196.495C711.889 199.39 705.822 200.837 698.808 200.837Z" fill="#FF0038"/>
<path d="M748.26 196.024C745.732 193.469 744.468 190.384 744.468 186.768C744.468 183.153 745.732 180.082 748.26 177.554C750.815 174.999 753.9 173.721 757.515 173.721C761.13 173.721 764.202 174.999 766.73 177.554C769.285 180.082 770.562 183.153 770.562 186.768C770.562 190.384 769.285 193.469 766.73 196.024C764.202 198.552 761.13 199.815 757.515 199.815C753.9 199.815 750.815 198.552 748.26 196.024Z" fill="#FE0137"/>
<path d="M613.034 88.5651H642.607V109.44H613.034V88.5651Z" fill="#2F2F2F"/>
</svg>
